<svg width="18" height="18" viewBox="0 0 18 18" fill="none" xmlns="http://www.w3.org/2000/svg">
<path d="M14.451 6.68476C14.4513 6.77423 14.4338 6.86288 14.3996 6.94554C14.3653 7.0282 14.315 7.10323 14.2515 7.16626L9.70873 11.709C9.61637 11.8029 9.50595 11.877 9.38414 11.927C9.26233 11.9771 9.13165 12.0019 8.99998 12C8.73748 12.006 8.48248 11.9078 8.29123 11.727L3.74848 7.18501C3.62116 7.0571 3.54968 6.88398 3.54968 6.70351C3.54968 6.52304 3.62116 6.34991 3.74848 6.22201C3.81115 6.15778 3.88604 6.10674 3.96873 6.0719C4.05142 6.03705 4.14025 6.0191 4.22998 6.0191C4.31972 6.0191 4.40855 6.03705 4.49124 6.0719C4.57393 6.10674 4.64881 6.15778 4.71148 6.22201L8.99998 10.4925L13.2885 6.20401C13.3512 6.13978 13.426 6.08875 13.5087 6.0539C13.5914 6.01905 13.6803 6.0011 13.77 6.0011C13.8597 6.0011 13.9485 6.01905 14.0312 6.0539C14.1139 6.08875 14.1888 6.13978 14.2515 6.20401C14.3157 6.26652 14.3665 6.34145 14.4008 6.42423C14.4351 6.50701 14.4522 6.59516 14.451 6.68476Z" fill="#595959"/>
</svg>
